<svg width="189" height="64" viewBox="0 0 189 64" fill="none" xmlns="http://www.w3.org/2000/svg">
<path d="M14.8807 47.4943C12.142 47.4943 9.77841 46.9545 7.78977 45.875C5.8125 44.7841 4.28977 43.233 3.22159 41.2216C2.16477 39.1989 1.63636 36.7955 1.63636 34.0114C1.63636 31.3068 2.17045 28.9432 3.23864 26.9205C4.30682 24.8864 5.8125 23.3068 7.75568 22.1818C9.69886 21.0455 11.9886 20.4773 14.625 20.4773C16.4886 20.4773 18.1932 20.767 19.7386 21.3466C21.2841 21.9261 22.6193 22.7841 23.7443 23.9205C24.8693 25.0568 25.7443 26.4602 26.3693 28.1307C26.9943 29.7898 27.3068 31.6932 27.3068 33.8409V35.9205H4.55114V31.0795H19.5511C19.5398 30.1932 19.3295 29.4034 18.9205 28.7102C18.5114 28.017 17.9489 27.4773 17.233 27.0909C16.5284 26.6932 15.7159 26.4943 14.7955 26.4943C13.8636 26.4943 13.0284 26.7045 12.2898 27.125C11.5511 27.5341 10.9659 28.0966 10.5341 28.8125C10.1023 29.517 9.875 30.3182 9.85227 31.2159V36.142C9.85227 37.2102 10.0625 38.1477 10.483 38.9545C10.9034 39.75 11.5 40.3693 12.2727 40.8125C13.0455 41.2557 13.9659 41.4773 15.0341 41.4773C15.7727 41.4773 16.4432 41.375 17.0455 41.1705C17.6477 40.9659 18.1648 40.6648 18.5966 40.267C19.0284 39.8693 19.3523 39.3807 19.5682 38.8011L27.2216 39.0227C26.9034 40.7386 26.2045 42.233 25.125 43.5057C24.0568 44.767 22.6534 45.75 20.9148 46.4545C19.1761 47.1477 17.1648 47.4943 14.8807 47.4943ZM79.223 47.4943C76.4616 47.4943 74.0923 46.9261 72.1151 45.7898C70.1491 44.6534 68.6378 43.0739 67.581 41.0511C66.5241 39.017 65.9957 36.6648 65.9957 33.9943C65.9957 31.3125 66.5241 28.9602 67.581 26.9375C68.6491 24.9034 70.1662 23.3182 72.1321 22.1818C74.1094 21.0455 76.4673 20.4773 79.206 20.4773C81.6264 20.4773 83.7344 20.9148 85.5298 21.7898C87.3366 22.6648 88.7457 23.9034 89.7571 25.5057C90.7798 27.0966 91.3196 28.9659 91.3764 31.1136H83.5866C83.4276 29.7727 82.973 28.7216 82.223 27.9602C81.4844 27.1989 80.5185 26.8182 79.3253 26.8182C78.3594 26.8182 77.5128 27.0909 76.7855 27.6364C76.0582 28.1705 75.4901 28.9659 75.081 30.0227C74.6832 31.0682 74.4844 32.3636 74.4844 33.9091C74.4844 35.4545 74.6832 36.7614 75.081 37.8295C75.4901 38.8864 76.0582 39.6875 76.7855 40.233C77.5128 40.767 78.3594 41.0341 79.3253 41.0341C80.098 41.0341 80.7798 40.8693 81.3707 40.5398C81.973 40.2102 82.4673 39.7273 82.8537 39.0909C83.2401 38.4432 83.4844 37.6591 83.5866 36.7386H91.3764C91.2969 38.8977 90.7571 40.7841 89.7571 42.3977C88.7685 44.0114 87.3764 45.267 85.581 46.1648C83.7969 47.0511 81.6776 47.4943 79.223 47.4943ZM107.881 47.4943C105.142 47.4943 102.778 46.9545 100.79 45.875C98.8125 44.7841 97.2898 43.233 96.2216 41.2216C95.1648 39.1989 94.6364 36.7955 94.6364 34.0114C94.6364 31.3068 95.1705 28.9432 96.2386 26.9205C97.3068 24.8864 98.8125 23.3068 100.756 22.1818C102.699 21.0455 104.989 20.4773 107.625 20.4773C109.489 20.4773 111.193 20.767 112.739 21.3466C114.284 21.9261 115.619 22.7841 116.744 23.9205C117.869 25.0568 118.744 26.4602 119.369 28.1307C119.994 29.7898 120.307 31.6932 120.307 33.8409V35.9205H97.5511V31.0795H112.551C112.54 30.1932 112.33 29.4034 111.92 28.7102C111.511 28.017 110.949 27.4773 110.233 27.0909C109.528 26.6932 108.716 26.4943 107.795 26.4943C106.864 26.4943 106.028 26.7045 105.29 27.125C104.551 27.5341 103.966 28.0966 103.534 28.8125C103.102 29.517 102.875 30.3182 102.852 31.2159V36.142C102.852 37.2102 103.063 38.1477 103.483 38.9545C103.903 39.75 104.5 40.3693 105.273 40.8125C106.045 41.2557 106.966 41.4773 108.034 41.4773C108.773 41.4773 109.443 41.375 110.045 41.1705C110.648 40.9659 111.165 40.6648 111.597 40.267C112.028 39.8693 112.352 39.3807 112.568 38.8011L120.222 39.0227C119.903 40.7386 119.205 42.233 118.125 43.5057C117.057 44.767 115.653 45.75 113.915 46.4545C112.176 47.1477 110.165 47.4943 107.881 47.4943ZM136.803 47.4943C134.064 47.4943 131.7 46.9545 129.712 45.875C127.734 44.7841 126.212 43.233 125.143 41.2216C124.087 39.1989 123.558 36.7955 123.558 34.0114C123.558 31.3068 124.092 28.9432 125.161 26.9205C126.229 24.8864 127.734 23.3068 129.678 22.1818C131.621 21.0455 133.911 20.4773 136.547 20.4773C138.411 20.4773 140.115 20.767 141.661 21.3466C143.206 21.9261 144.541 22.7841 145.666 23.9205C146.791 25.0568 147.666 26.4602 148.291 28.1307C148.916 29.7898 149.229 31.6932 149.229 33.8409V35.9205H126.473V31.0795H141.473C141.462 30.1932 141.251 29.4034 140.842 28.7102C140.433 28.017 139.871 27.4773 139.155 27.0909C138.45 26.6932 137.638 26.4943 136.717 26.4943C135.786 26.4943 134.95 26.7045 134.212 27.125C133.473 27.5341 132.888 28.0966 132.456 28.8125C132.024 29.517 131.797 30.3182 131.774 31.2159V36.142C131.774 37.2102 131.984 38.1477 132.405 38.9545C132.825 39.75 133.422 40.3693 134.195 40.8125C134.967 41.2557 135.888 41.4773 136.956 41.4773C137.695 41.4773 138.365 41.375 138.967 41.1705C139.57 40.9659 140.087 40.6648 140.518 40.267C140.95 39.8693 141.274 39.3807 141.49 38.8011L149.143 39.0227C148.825 40.7386 148.126 42.233 147.047 43.5057C145.979 44.767 144.575 45.75 142.837 46.4545C141.098 47.1477 139.087 47.4943 136.803 47.4943ZM163.048 47.375C161.116 47.375 159.361 46.875 157.781 45.875C156.202 44.875 154.94 43.375 153.997 41.375C153.054 39.375 152.582 36.892 152.582 33.9261C152.582 30.8466 153.071 28.3125 154.048 26.3239C155.026 24.3352 156.304 22.8636 157.884 21.9091C159.474 20.9545 161.185 20.4773 163.014 20.4773C164.389 20.4773 165.565 20.7159 166.543 21.1932C167.52 21.6591 168.327 22.2614 168.963 23C169.599 23.7386 170.082 24.5057 170.412 25.3011H170.582V12.0909H178.918V47H170.668V42.7557H170.412C170.06 43.5625 169.56 44.3182 168.912 45.0227C168.264 45.7273 167.452 46.2955 166.474 46.7273C165.509 47.1591 164.366 47.375 163.048 47.375ZM165.946 40.8807C166.957 40.8807 167.821 40.5966 168.537 40.0284C169.253 39.4489 169.804 38.6364 170.19 37.5909C170.577 36.5455 170.77 35.3182 170.77 33.9091C170.77 32.4773 170.577 31.2443 170.19 30.2102C169.815 29.1761 169.264 28.3807 168.537 27.8239C167.821 27.267 166.957 26.9886 165.946 26.9886C164.912 26.9886 164.037 27.2727 163.321 27.8409C162.605 28.4091 162.06 29.2102 161.685 30.2443C161.321 31.2784 161.139 32.5 161.139 33.9091C161.139 35.3182 161.327 36.5455 161.702 37.5909C162.077 38.6364 162.616 39.4489 163.321 40.0284C164.037 40.5966 164.912 40.8807 165.946 40.8807Z" fill="black"/>
<path d="M43.3935 12.0909L47.9276 23.1193H48.2003L56.4844 12.0909H66.2514L52.8537 29.5455L60.7969 47H51.3366L46.6321 35.8523H46.3594L37.973 47H28.1378L41.8935 29.5455L34.206 12.0909H43.3935Z" fill="#6366F1"/>
</svg>
